<svg xmlns="http://www.w3.org/2000/svg" shape-rendering="geometricPrecision" text-rendering="geometricPrecision" image-rendering="optimizeQuality" fill-rule="evenodd" clip-rule="evenodd" viewBox="0 0 512 401.777"><path d="M75.612 0H436.53c4.741 0 8.62 3.882 8.62 8.622V244.1c0 1.914-.62 3.664-1.677 5.094h.91a3.59 3.59 0 013.371 1.968l61.865 122.895c4.792 9.506 2.775 26.432-9.938 27.72H12.209c-11.223-1.495-14.781-18.13-10.373-26.923l62.072-123.613a3.588 3.588 0 013.259-2.096h1.468a8.56 8.56 0 01-1.642-5.045V8.622C66.993 3.879 70.872 0 75.612 0zM207.2 335.055h88.136c5.151 0 8.546 4.197 9.25 9.008l4.319 29.592.082 1.071c0 2.177-.968 4.145-2.479 5.635a9.981 9.981 0 01-5.485 2.721c-.457.07-.919.106-1.365.106h-96.777c-.427 0-.881-.036-1.342-.101-4.149-.603-7.973-3.968-7.978-8.358a6.422 6.422 0 01.073-1.074l4.319-29.584c.699-4.8 4.094-9.016 9.247-9.016zM84.316 265.329h343.785c5.132 0 7.049 3.998 9.016 8.127l21.422 44.651c.378.78.554 1.571.554 2.354 0 1.498-.633 2.903-1.649 4.099-.911 1.074-2.172 1.995-3.539 2.653-1.473.712-3.115 1.133-4.648 1.133H62.886c-1.555 0-3.224-.432-4.716-1.157-1.351-.661-2.591-1.577-3.496-2.648-.997-1.182-1.622-2.582-1.625-4.072a5.287 5.287 0 01.554-2.37l21.756-44.752c1.968-4.085 3.866-8.018 8.957-8.018zm229.27 45.312c1.166 0 1.853.972 2.071 2.095l.745 3.846c.217 1.123-1.006 2.093-2.161 2.093H166.6c-1.167 0-1.816-.938-1.444-2.093l1.24-3.846c.372-1.152 1.625-2.095 2.791-2.095h144.399zm-33.925-11.569h-18.962a2.001 2.001 0 00-2.02 2.093l.177 3.849c.052 1.15 1.046 2.093 2.213 2.093h18.961a1.997 1.997 0 002.017-2.093l-.176-3.849c-.049-1.15-1.052-2.093-2.21-2.093zm-1.61-12.139h-17.352a1.998 1.998 0 00-2.02 2.093l.177 3.849c.052 1.152 1.046 2.093 2.213 2.093h17.352a1.998 1.998 0 002.02-2.093l-.177-3.849c-.054-1.15-1.046-2.093-2.213-2.093zm64.899 23.708h-17.353c-1.163 0-1.813.943-1.44 2.095l1.239 3.846c.373 1.155 1.626 2.093 2.792 2.093h17.35c1.166 0 1.815-.938 1.443-2.093l-1.239-3.846c-.373-1.152-1.626-2.095-2.792-2.095zm29.331 0h-17.349c-1.166 0-1.813.943-1.444 2.095l1.243 3.846c.372 1.155 1.625 2.093 2.791 2.093h17.352c1.164 0 1.811-.938 1.441-2.093l-1.242-3.846c-.367-1.152-1.625-2.095-2.792-2.095zm31.634 0h-17.35c-1.166 0-1.815.943-1.443 2.095l1.24 3.846c.372 1.155 1.625 2.093 2.791 2.093h17.353c1.163 0 1.813-.938 1.44-2.093l-1.239-3.846c-.373-1.152-1.626-2.095-2.792-2.095zm29.28 0h-17.35c-1.166 0-1.816.943-1.443 2.095l1.239 3.846c.373 1.155 1.626 2.093 2.792 2.093h17.352c1.164 0 1.813-.938 1.441-2.093l-1.239-3.846c-.37-1.152-1.626-2.095-2.792-2.095zm-122.947-12.042h-19.25c-1.16 0-1.957.946-1.759 2.093l.664 3.846c.195 1.15 1.31 2.096 2.473 2.096h19.253c1.166 0 1.951-.94 1.759-2.096l-.661-3.846c-.196-1.152-1.321-2.093-2.479-2.093zm29.761 0h-17.353c-1.163 0-1.81.941-1.44 2.093l1.242 3.846c.369 1.156 1.625 2.096 2.791 2.096h17.35c1.166 0 1.813-.94 1.444-2.096l-1.243-3.846c-.372-1.152-1.625-2.093-2.791-2.093zm29.383 0H352.04c-1.166 0-1.816.941-1.444 2.093l1.239 3.846c.373 1.156 1.629 2.096 2.792 2.096h17.353c1.163 0 1.813-.94 1.443-2.096l-1.242-3.846c-.37-1.152-1.625-2.093-2.789-2.093zm29.541 0H381.58c-1.166 0-1.816.941-1.443 2.093l1.239 3.846c.373 1.156 1.629 2.096 2.792 2.096h17.353c1.163 0 1.813-.94 1.443-2.096l-1.242-3.846c-.37-1.152-1.626-2.093-2.789-2.093zm28.676 0h-17.352c-1.166 0-1.813.941-1.444 2.093l1.24 3.846c.372 1.156 1.628 2.096 2.791 2.096h17.353c1.166 0 1.813-.94 1.443-2.096l-1.239-3.846c-.373-1.152-1.628-2.093-2.792-2.093zm-120.144-11.666h-18.12c-1.158 0-1.954.948-1.758 2.093l.663 3.849c.199 1.147 1.31 2.093 2.476 2.093h18.119c1.167 0 1.952-.941 1.756-2.093l-.657-3.849c-.196-1.15-1.321-2.093-2.479-2.093zm28.54 0h-17.353c-1.163 0-1.813.943-1.44 2.093l1.239 3.849c.373 1.152 1.626 2.093 2.792 2.093h17.35c1.166 0 1.815-.941 1.443-2.093l-1.239-3.849c-.373-1.15-1.626-2.093-2.792-2.093zm29.106 0h-17.353c-1.163 0-1.813.943-1.44 2.093l1.239 3.849c.37 1.152 1.626 2.093 2.789 2.093h17.353c1.166 0 1.815-.941 1.443-2.093l-1.239-3.849c-.373-1.15-1.626-2.093-2.792-2.093zm29.157 0h-17.349c-1.167 0-1.816.943-1.444 2.093l1.24 3.849c.372 1.152 1.625 2.093 2.791 2.093h17.353c1.163 0 1.813-.941 1.441-2.093l-1.24-3.849c-.37-1.15-1.626-2.093-2.792-2.093zm28.082 0h-17.353c-1.166 0-1.813.943-1.443 2.093l1.239 3.849c.373 1.152 1.628 2.093 2.792 2.093h17.352c1.167 0 1.813-.941 1.444-2.093l-1.24-3.849c-.372-1.15-1.628-2.093-2.791-2.093zM304.502 275h-17.353c-1.163 0-1.954.941-1.756 2.093l.661 3.849c.198 1.152 1.312 2.093 2.476 2.093h17.353c1.166 0 1.954-.941 1.756-2.093l-.658-3.849c-.199-1.152-1.313-2.093-2.479-2.093zm28.01 0h-17.35c-1.166 0-1.815.941-1.443 2.093l1.239 3.849c.373 1.152 1.626 2.093 2.792 2.093h17.353c1.163 0 1.813-.941 1.44-2.093l-1.239-3.849c-.37-1.152-1.626-2.093-2.792-2.093zm28.514 0h-17.353c-1.166 0-1.816.941-1.443 2.093l1.239 3.849c.373 1.152 1.628 2.093 2.792 2.093h17.352c1.164 0 1.813-.941 1.444-2.093l-1.243-3.849c-.369-1.152-1.625-2.093-2.788-2.093zm28.295 0h-17.352c-1.166 0-1.816.941-1.443 2.093l1.239 3.849c.372 1.152 1.628 2.093 2.792 2.093h17.352c1.164 0 1.813-.941 1.444-2.093l-1.243-3.849c-.369-1.152-1.625-2.093-2.789-2.093zm27.152 0H399.12c-1.166 0-1.812.941-1.443 2.093l1.24 3.849c.372 1.152 1.628 2.093 2.791 2.093h17.353c1.166 0 1.813-.941 1.443-2.093l-1.239-3.849c-.373-1.152-1.629-2.093-2.792-2.093zm-138.422 0h-17.352a1.997 1.997 0 00-2.02 2.093l.177 3.849c.052 1.152 1.046 2.093 2.213 2.093h17.352a1.998 1.998 0 002.02-2.093l-.177-3.849c-.054-1.152-1.046-2.093-2.213-2.093zm-138.195 35.641h17.35c1.166 0 1.813.943 1.44 2.095l-1.239 3.846c-.373 1.155-1.626 2.093-2.792 2.093h-17.353c-1.163 0-1.812-.938-1.44-2.093l1.242-3.846c.367-1.152 1.623-2.095 2.792-2.095zm-31.634 0h17.35c1.166 0 1.816.943 1.443 2.095l-1.239 3.846c-.373 1.155-1.626 2.093-2.792 2.093h-17.353c-1.163 0-1.812-.938-1.44-2.093l1.239-3.846c.373-1.152 1.626-2.095 2.792-2.095zm-29.28 0h17.35c1.166 0 1.816.943 1.443 2.095l-1.239 3.846c-.373 1.155-1.626 2.093-2.792 2.093H76.351c-1.163 0-1.813-.938-1.44-2.093l1.239-3.846c.37-1.152 1.626-2.095 2.792-2.095zm153.306-12.042h19.334c1.164 0 2.02.943 1.911 2.093l-.381 3.846c-.111 1.153-1.16 2.096-2.324 2.096h-19.334c-1.16 0-2.025-.94-1.91-2.096l.38-3.846c.114-1.152 1.158-2.093 2.324-2.093zm-30.359 0h17.353c1.163 0 1.954.941 1.756 2.093l-.663 3.846c-.196 1.156-1.311 2.096-2.474 2.096h-17.353c-1.166 0-1.954-.94-1.758-2.096l.66-3.846c.199-1.152 1.313-2.093 2.479-2.093zm-29.761 0h17.353c1.163 0 1.81.941 1.44 2.093l-1.242 3.846c-.37 1.156-1.625 2.096-2.791 2.096h-17.35c-1.166 0-1.813-.94-1.444-2.096l1.243-3.846c.369-1.152 1.625-2.093 2.791-2.093zm-29.383 0h17.353c1.166 0 1.815.941 1.443 2.093l-1.24 3.846c-.372 1.156-1.627 2.096-2.791 2.096h-17.353c-1.163 0-1.813-.94-1.443-2.096l1.242-3.846c.37-1.152 1.626-2.093 2.789-2.093zm-29.541 0h17.353c1.166 0 1.816.941 1.443 2.093l-1.239 3.846c-.373 1.156-1.628 2.096-2.792 2.096h-17.352c-1.164 0-1.814-.94-1.444-2.096l1.242-3.846c.37-1.152 1.626-2.093 2.789-2.093zm-28.676 0h17.352c1.166 0 1.814.941 1.444 2.093l-1.24 3.846c-.372 1.156-1.628 2.096-2.791 2.096H81.94c-1.166 0-1.813-.94-1.443-2.096l1.239-3.846c.372-1.152 1.628-2.093 2.792-2.093zm148.758-11.666h18.296c1.166 0 2.02.946 1.911 2.093l-.381 3.849c-.111 1.15-1.16 2.093-2.321 2.093h-18.298c-1.164 0-2.023-.941-1.911-2.093l.38-3.849c.115-1.15 1.158-2.093 2.324-2.093zm-28.613 0h17.352c1.164 0 1.955.943 1.756 2.093l-.663 3.849c-.196 1.152-1.31 2.093-2.474 2.093h-17.352c-1.166 0-1.955-.941-1.756-2.093l.658-3.849c.198-1.15 1.313-2.093 2.479-2.093zm-28.541 0h17.353c1.163 0 1.813.943 1.44 2.093l-1.239 3.849c-.373 1.152-1.626 2.093-2.792 2.093h-17.35c-1.166 0-1.816-.941-1.443-2.093l1.239-3.849c.373-1.15 1.626-2.093 2.792-2.093zm-29.106 0h17.353c1.163 0 1.813.943 1.441 2.093l-1.24 3.849c-.37 1.152-1.626 2.093-2.789 2.093h-17.352c-1.167 0-1.816-.941-1.444-2.093l1.239-3.849c.373-1.15 1.626-2.093 2.792-2.093zm-29.157 0h17.349c1.166 0 1.816.943 1.444 2.093l-1.24 3.849c-.372 1.152-1.625 2.093-2.791 2.093h-17.353c-1.163 0-1.813-.941-1.441-2.093l1.24-3.849c.37-1.15 1.625-2.093 2.792-2.093zm-28.082 0h17.353c1.166 0 1.813.943 1.443 2.093l-1.239 3.849c-.372 1.152-1.628 2.093-2.792 2.093H87.2c-1.166 0-1.813-.941-1.443-2.093l1.239-3.849c.372-1.15 1.628-2.093 2.791-2.093zM234.23 275h17.352c1.166 0 2.023.941 1.911 2.093l-.381 3.849c-.114 1.152-1.157 2.093-2.324 2.093h-17.349c-1.166 0-2.025-.941-1.911-2.093l.38-3.849c.112-1.152 1.158-2.093 2.322-2.093zm-26.595 0h17.353c1.163 0 1.954.941 1.756 2.093l-.663 3.849c-.196 1.152-1.311 2.093-2.474 2.093h-17.353c-1.166 0-1.954-.941-1.755-2.093l.657-3.849c.199-1.152 1.313-2.093 2.479-2.093zm-28.01 0h17.35c1.166 0 1.815.941 1.443 2.093l-1.24 3.849c-.372 1.152-1.625 2.093-2.791 2.093h-17.352c-1.164 0-1.813-.941-1.441-2.093l1.239-3.849c.37-1.152 1.626-2.093 2.792-2.093zm-28.514 0h17.353c1.166 0 1.816.941 1.443 2.093l-1.239 3.849c-.372 1.152-1.628 2.093-2.791 2.093h-17.353c-1.163 0-1.813-.941-1.443-2.093l1.241-3.849c.37-1.152 1.626-2.093 2.789-2.093zm-28.296 0h17.353c1.166 0 1.816.941 1.443 2.093l-1.239 3.849c-.372 1.152-1.628 2.093-2.791 2.093h-17.353c-1.163 0-1.813-.941-1.443-2.093l1.242-3.849c.369-1.152 1.625-2.093 2.788-2.093zm-27.151 0h17.353c1.166 0 1.813.941 1.443 2.093l-1.239 3.849c-.373 1.152-1.629 2.093-2.792 2.093H93.076c-1.166 0-1.813-.941-1.443-2.093l1.24-3.849c.372-1.152 1.628-2.093 2.791-2.093zm332.437-6.072H84.316c-2.846 0-4.259 2.933-5.727 5.98l-21.756 44.751a1.855 1.855 0 00-.193.81c-.009.574.293 1.185.774 1.756.579.685 1.406 1.291 2.321 1.734 1.022.495 2.137.789 3.151.789h386.371c1.006 0 2.101-.286 3.09-.761.93-.443 1.77-1.05 2.357-1.743.486-.573.791-1.19.791-1.783 0-.261-.063-.536-.193-.81L433.88 275c-1.478-3.082-2.908-6.072-5.779-6.072zM207.2 336.854h88.136c4.113 0 6.88 3.403 7.472 7.47l4.32 29.592c.592 4.064-3.365 7.472-7.47 7.472h-96.777c-4.102 0-8.062-3.403-7.469-7.472l4.319-29.592c.592-4.067 3.359-7.47 7.469-7.47zm299.216 38.818l-61.864-122.895-377.385-.049L5.039 376.455c-3.621 7.206 2.188 14.898 9.88 14.629h482.588c8.037.451 12.813-7.657 8.909-15.412zM81.114 14.08h349.915v224.559H81.114V14.08z"/></svg>